<svg width="16" height="25" viewBox="0 0 16 25" fill="none" xmlns="http://www.w3.org/2000/svg">
<path d="M1.33284 13.1032L12.0131 23.7833C12.2602 24.0305 12.5899 24.1667 12.9415 24.1667C13.2931 24.1667 13.6229 24.0305 13.8699 23.7833L14.6564 22.9969C15.1682 22.4846 15.1682 21.6518 14.6564 21.1402L5.68793 12.1717L14.6664 3.1932C14.9134 2.94599 15.0498 2.61643 15.0498 2.26501C15.0498 1.91321 14.9134 1.58365 14.6664 1.33624L13.8799 0.550102C13.6326 0.302885 13.3031 0.166691 12.9515 0.166691C12.5999 0.166691 12.2701 0.302885 12.0231 0.550102L1.33284 11.24C1.08523 11.488 0.949236 11.8191 0.950017 12.1711C0.949236 12.5244 1.08523 12.8554 1.33284 13.1032Z" fill="black"/>
</svg>
